<mxfile host="app.diagrams.net" modified="2023-09-20T13:51:12.744Z" agent="Mozilla/5.0 (X11; Linux x86_64) AppleWebKit/537.36 (KHTML, like Gecko) Chrome/112.0.0.0 Safari/537.36" version="21.7.5" etag="MfgMHPkJ_t-_I-zqV5Us" type="github">
  <diagram name="Page-1" id="qPdvbD_3wHOQJ4XgYrTA">
    <mxGraphModel>
      <root>
        <mxCell id="0" />
        <mxCell id="1" parent="0" />
      </root>
    </mxGraphModel>
  </diagram>
</mxfile>
